# xmcd CD database file
#
# Track frame offsets:
#	183
#	13288
#	28593
#	48778
#	65463
#	79880
#	95905
#	113290
#	130415
#	145480
#	156098
#	169445
#	186855
#
# Disc length: 2673 seconds
#
# Revision: 1
# Processed by: cddbd v1.5.2PL0 Copyright (c) Steve Scherf et al.
# Submitted via: CDex 1.60beta1-cs1
#
DISCID=b40a6f0d
DTITLE=Kathy Mattea - Untold Stories
DYEAR=1990
DGENRE=Country
TTITLE0=Train of Memories
TTITLE1=Eighteen Wheels and a Dozen Roses
TTITLE2=Goin' Gone
TTITLE3=Love at the Five and Dime
TTITLE4=Come From the Heart
TTITLE5=She Came From Fort Worth
TTITLE6=Walk the Way the Wind Blows
TTITLE7=Where've You Been
TTITLE8=Lifa as We Knew It
TTITLE9=Burnin' Old Memories
TTITLE10=The Battle Hymn of Love (with Tim O'Brien)
TTITLE11=A Few Good Things Remain
TTITLE12=Untold Stories
EXTD=YEAR: 1990
EXTT0=
EXTT1=
EXTT2=
EXTT3=
EXTT4=
EXTT5=
EXTT6=
EXTT7=
EXTT8=
EXTT9=
EXTT10=
EXTT11=
EXTT12=
PLAYORDER=
